<svg width="100" height="60" viewBox="0 0 100 60" fill="none" xmlns="http://www.w3.org/2000/svg">
<path fill-rule="evenodd" clip-rule="evenodd" d="M0 5C0 2.23858 2.23858 0 5 0H95C97.7614 0 100 2.23858 100 5V30H0V5ZM37.4184 6.248V18.008C37.4184 19.64 36.9464 20.912 36.0024 21.824C35.0584 22.72 33.7944 23.168 32.2104 23.168C30.6104 23.168 29.3144 22.704 28.3224 21.776C27.3464 20.848 26.8584 19.552 26.8584 17.888H30.2184C30.2344 18.608 30.4024 19.168 30.7224 19.568C31.0584 19.968 31.5384 20.168 32.1624 20.168C32.7704 20.168 33.2344 19.976 33.5544 19.592C33.8744 19.208 34.0344 18.68 34.0344 18.008V6.248H37.4184ZM40.7619 14.6C40.7619 12.952 41.1299 11.48 41.8659 10.184C42.6179 8.872 43.6339 7.856 44.9139 7.136C46.2099 6.4 47.6579 6.032 49.2579 6.032C51.1299 6.032 52.7699 6.512 54.1779 7.472C55.5859 8.432 56.5699 9.76 57.1299 11.456H53.2659C52.8819 10.656 52.3379 10.056 51.6339 9.656C50.9459 9.256 50.1459 9.056 49.2339 9.056C48.2579 9.056 47.3859 9.288 46.6179 9.752C45.8659 10.2 45.2739 10.84 44.8419 11.672C44.4259 12.504 44.2179 13.48 44.2179 14.6C44.2179 15.704 44.4259 16.68 44.8419 17.528C45.2739 18.36 45.8659 19.008 46.6179 19.472C47.3859 19.92 48.2579 20.144 49.2339 20.144C50.1459 20.144 50.9459 19.944 51.6339 19.544C52.3379 19.128 52.8819 18.52 53.2659 17.72H57.1299C56.5699 19.432 55.5859 20.768 54.1779 21.728C52.7859 22.672 51.1459 23.144 49.2579 23.144C47.6579 23.144 46.2099 22.784 44.9139 22.064C43.6339 21.328 42.6179 20.312 41.8659 19.016C41.1299 17.72 40.7619 16.248 40.7619 14.6ZM69.7438 14.408C70.6878 14.584 71.4637 15.056 72.0717 15.824C72.6797 16.592 72.9837 17.472 72.9837 18.464C72.9837 19.36 72.7598 20.152 72.3118 20.84C71.8797 21.512 71.2477 22.04 70.4157 22.424C69.5837 22.808 68.5997 23 67.4637 23H60.2397V6.248H67.1517C68.2878 6.248 69.2637 6.432 70.0798 6.8C70.9118 7.168 71.5358 7.68 71.9518 8.336C72.3838 8.992 72.5997 9.736 72.5997 10.568C72.5997 11.544 72.3357 12.36 71.8077 13.016C71.2957 13.672 70.6077 14.136 69.7438 14.408ZM63.5997 13.16H66.6717C67.4717 13.16 68.0877 12.984 68.5197 12.632C68.9518 12.264 69.1677 11.744 69.1677 11.072C69.1677 10.4 68.9518 9.88 68.5197 9.512C68.0877 9.144 67.4717 8.96 66.6717 8.96H63.5997V13.16ZM66.9837 20.264C67.7998 20.264 68.4317 20.072 68.8797 19.688C69.3438 19.304 69.5758 18.76 69.5758 18.056C69.5758 17.336 69.3357 16.776 68.8558 16.376C68.3757 15.96 67.7277 15.752 66.9118 15.752H63.5997V20.264H66.9837ZM11.8329 41.32C11.2196 42.4 10.9129 43.6267 10.9129 45C10.9129 46.3733 11.2196 47.6 11.8329 48.68C12.4596 49.76 13.3062 50.6067 14.3729 51.22C15.4529 51.82 16.6596 52.12 17.9929 52.12C19.5662 52.12 20.9329 51.7267 22.0929 50.94C23.2662 50.14 24.0862 49.0267 24.5529 47.6H21.3329C21.0129 48.2667 20.5596 48.7733 19.9729 49.12C19.3996 49.4533 18.7329 49.62 17.9729 49.62C17.1596 49.62 16.4329 49.4333 15.7929 49.06C15.1662 48.6733 14.6729 48.1333 14.3129 47.44C13.9662 46.7333 13.7929 45.92 13.7929 45C13.7929 44.0667 13.9662 43.2533 14.3129 42.56C14.6729 41.8667 15.1662 41.3333 15.7929 40.96C16.4329 40.5733 17.1596 40.38 17.9729 40.38C18.7329 40.38 19.3996 40.5467 19.9729 40.88C20.5596 41.2133 21.0129 41.7133 21.3329 42.38H24.5529C24.0862 40.9667 23.2662 39.86 22.0929 39.06C20.9196 38.26 19.5529 37.86 17.9929 37.86C16.6596 37.86 15.4529 38.1667 14.3729 38.78C13.3062 39.38 12.4596 40.2267 11.8329 41.32ZM29.9445 52V38.04H27.1445V52H29.9445ZM42.0509 52H44.8509V38.02H42.0509V47.62L35.7109 38.02H32.9109V52H35.7109V42.42L42.0509 52ZM50.6179 43.8V40.3H55.9179V38.02H47.8179V52H55.9179V49.72H50.6179V46.02H55.3179V43.8H50.6179ZM73.8824 52V38.04H70.7224L66.2824 48.42L61.8424 38.04H58.6624V52H61.4624V42.92L65.2224 52H67.3424L71.0824 42.92V52H73.8824ZM78.9307 52L79.8507 49.34H85.4107L86.3307 52H89.2907L84.2707 38.02H81.0107L75.9907 52H78.9307ZM82.6307 41.26L84.6507 47.1H80.6107L82.6307 41.26Z" fill="#FCF02D"/>
<path d="M5 0.5H95C97.4853 0.5 99.5 2.51472 99.5 5V55C99.5 57.4853 97.4853 59.5 95 59.5H5C2.51472 59.5 0.5 57.4853 0.5 55V5C0.5 2.51472 2.51472 0.5 5 0.5Z" stroke="#FCF02D"/>
</svg>
