<svg width="220" height="45" viewBox="0 0 220 45" fill="none" xmlns="http://www.w3.org/2000/svg">
<path fill-rule="evenodd" clip-rule="evenodd" d="M5 0C2.23858 0 0 2.23858 0 5V40C0 42.7614 2.23858 45 5 45H75C77.7614 45 80 42.7614 80 40V5C80 2.23858 77.7614 0 75 0H5ZM23.5445 27.344V11.664H19.0325V27.344C19.0325 28.24 18.8192 28.944 18.3925 29.456C17.9658 29.968 17.3472 30.224 16.5365 30.224C15.7045 30.224 15.0645 29.9573 14.6165 29.424C14.1898 28.8907 13.9658 28.144 13.9445 27.184H9.4645C9.4645 29.4027 10.1152 31.1307 11.4165 32.368C12.7392 33.6053 14.4672 34.224 16.6005 34.224C18.7125 34.224 20.3978 33.6267 21.6565 32.432C22.9152 31.216 23.5445 29.52 23.5445 27.344ZM29.1545 16.912C28.1732 18.64 27.6825 20.6027 27.6825 22.8C27.6825 24.9973 28.1732 26.96 29.1545 28.688C30.1572 30.416 31.5118 31.7707 33.2185 32.752C34.9465 33.712 36.8772 34.192 39.0105 34.192C41.5278 34.192 43.7145 33.5627 45.5705 32.304C47.4478 31.024 48.7598 29.2427 49.5065 26.96H44.3545C43.8425 28.0267 43.1172 28.8373 42.1785 29.392C41.2612 29.9253 40.1945 30.192 38.9785 30.192C37.6772 30.192 36.5145 29.8933 35.4905 29.296C34.4878 28.6773 33.6985 27.8133 33.1225 26.704C32.5678 25.5733 32.2905 24.272 32.2905 22.8C32.2905 21.3067 32.5678 20.0053 33.1225 18.896C33.6985 17.7867 34.4878 16.9333 35.4905 16.336C36.5145 15.7173 37.6772 15.408 38.9785 15.408C40.1945 15.408 41.2612 15.6747 42.1785 16.208C43.1172 16.7413 43.8425 17.5413 44.3545 18.608H49.5065C48.7598 16.3467 47.4478 14.576 45.5705 13.296C43.6932 12.016 41.5065 11.376 39.0105 11.376C36.8772 11.376 34.9465 11.8667 33.2185 12.848C31.5118 13.808 30.1572 15.1627 29.1545 16.912ZM69.109 24.432C68.2983 23.408 67.2637 22.7787 66.005 22.544C67.157 22.1813 68.0743 21.5627 68.757 20.688C69.461 19.8133 69.813 18.7253 69.813 17.424C69.813 16.3147 69.525 15.3227 68.949 14.448C68.3943 13.5733 67.5623 12.8907 66.453 12.4C65.365 11.9093 64.0637 11.664 62.549 11.664H53.333V34H62.965C64.4797 34 65.7917 33.744 66.901 33.232C68.0103 32.72 68.853 32.016 69.429 31.12C70.0263 30.2027 70.325 29.1467 70.325 27.952C70.325 26.6293 69.9197 25.456 69.109 24.432ZM61.909 20.88H57.813V15.28H61.909C62.9757 15.28 63.797 15.5253 64.373 16.016C64.949 16.5067 65.237 17.2 65.237 18.096C65.237 18.992 64.949 19.6853 64.373 20.176C63.797 20.6453 62.9757 20.88 61.909 20.88ZM64.853 29.584C64.2557 30.096 63.413 30.352 62.325 30.352H57.813V24.336H62.229C63.317 24.336 64.181 24.6133 64.821 25.168C65.461 25.7013 65.781 26.448 65.781 27.408C65.781 28.3467 65.4717 29.072 64.853 29.584Z" fill="url(#paint0_linear_131_2)"/>
<path d="M91.2606 22.8C91.2606 20.6027 91.7513 18.64 92.7326 16.912C93.7353 15.1627 95.09 13.808 96.7966 12.848C98.5246 11.8667 100.455 11.376 102.589 11.376C105.085 11.376 107.271 12.016 109.149 13.296C111.026 14.576 112.338 16.3467 113.085 18.608H107.933C107.421 17.5413 106.695 16.7413 105.757 16.208C104.839 15.6747 103.773 15.408 102.557 15.408C101.255 15.408 100.093 15.7173 99.0686 16.336C98.066 16.9333 97.2766 17.7867 96.7006 18.896C96.146 20.0053 95.8686 21.3067 95.8686 22.8C95.8686 24.272 96.146 25.5733 96.7006 26.704C97.2766 27.8133 98.066 28.6773 99.0686 29.296C100.093 29.8933 101.255 30.192 102.557 30.192C103.773 30.192 104.839 29.9253 105.757 29.392C106.695 28.8373 107.421 28.0267 107.933 26.96H113.085C112.338 29.2427 111.026 31.024 109.149 32.304C107.293 33.5627 105.106 34.192 102.589 34.192C100.455 34.192 98.5246 33.712 96.7966 32.752C95.09 31.7707 93.7353 30.416 92.7326 28.688C91.7513 26.96 91.2606 24.9973 91.2606 22.8ZM121.391 11.664V34H116.911V11.664H121.391ZM144.921 34H140.441L130.297 18.672V34H125.817V11.632H130.297L140.441 26.992V11.632H144.921V34ZM153.829 15.28V20.88H161.349V24.432H153.829V30.352H162.309V34H149.349V11.632H162.309V15.28H153.829ZM190.732 11.664V34H186.252V19.472L180.268 34H176.876L170.86 19.472V34H166.38V11.664H171.468L178.572 28.272L185.676 11.664H190.732ZM208.857 29.744H199.961L198.489 34H193.785L201.817 11.632H207.033L215.065 34H210.329L208.857 29.744ZM207.641 26.16L204.409 16.816L201.177 26.16H207.641Z" fill="url(#paint1_linear_131_2)"/>
<defs>
<linearGradient id="paint0_linear_131_2" x1="40" y1="0" x2="40" y2="45" gradientUnits="userSpaceOnUse">
<stop stop-color="#F5CF00"/>
</linearGradient>
<linearGradient id="paint1_linear_131_2" x1="153" y1="0" x2="153" y2="45" gradientUnits="userSpaceOnUse">
<stop stop-color="#FFD900"/>
</linearGradient>
</defs>
</svg>
