<svg width="26" height="26" viewBox="0 0 26 26" fill="none" xmlns="http://www.w3.org/2000/svg">
<path fill-rule="evenodd" clip-rule="evenodd" d="M17.9534 16.4286H8.04564C5.12967 16.5528 2.54617 18.0795 1.37386 20.3715C-0.0401054 22.7509 2.78183 25.0001 6.06375 25.0001H19.9354C23.2193 25.0001 26.0412 22.7509 24.6252 20.3715C23.4531 18.0795 20.8695 16.5528 17.9534 16.4286Z" stroke="white" stroke-width="1.84" stroke-linecap="round" stroke-linejoin="round"/>
<path fill-rule="evenodd" clip-rule="evenodd" d="M18.9994 6.14286C18.9994 8.98317 16.3133 11.2857 12.9995 11.2857C9.68601 11.2857 6.99976 8.98317 6.99976 6.14286C6.99976 3.30254 9.68601 1 12.9995 1C14.5909 1 16.1171 1.54183 17.2422 2.50631C18.3674 3.47078 18.9994 4.77889 18.9994 6.14286Z" stroke="white" stroke-width="1.84" stroke-linecap="round" stroke-linejoin="round"/>
</svg>
