<svg width="18" height="18" viewBox="0 0 18 18" fill="none" xmlns="http://www.w3.org/2000/svg">
<path fill-rule="evenodd" clip-rule="evenodd" d="M16.752 5.82956V12.5318C16.752 14.9995 14.7631 17 12.3098 17H5.64654C3.19318 17 1.20435 14.9995 1.20435 12.5318V5.82956C1.20435 3.36186 3.19318 1.36139 5.64654 1.36139H12.3098C14.7631 1.36139 16.752 3.36186 16.752 5.82956Z" stroke="#FCF02D" stroke-linecap="round" stroke-linejoin="round"/>
<path fill-rule="evenodd" clip-rule="evenodd" d="M8.31199 9.31141L10.422 10.911C10.5602 11.0096 10.6423 11.1695 10.6423 11.34C10.6423 11.5103 10.5602 11.6702 10.422 11.7689L8.31199 13.5182C8.13386 13.6579 7.89432 13.6894 7.68642 13.6002C7.47864 13.511 7.33538 13.3153 7.3125 13.0892V9.73812C7.33615 9.51236 7.47964 9.31733 7.68731 9.22875C7.89498 9.14005 8.13419 9.17166 8.31199 9.31141Z" stroke="#FCF02D" stroke-linecap="round" stroke-linejoin="round"/>
<path d="M16.7521 6.58521C17.2121 6.58521 16.8909 6.29226 16.8909 5.82957C16.8909 5.36688 17.2121 5.46817 16.7521 5.46817V6.58521ZM8.97829 4.99179C8.5183 4.99179 8.4962 5.564 8.4962 6.02669C8.4962 6.48938 8.4962 6.50307 8.97829 6.58521L8.97829 4.99179ZM1.20445 5.46817C0.744447 5.46817 1.20445 5.46817 1.20444 5.82957C1.20444 6.29226 0.744447 6.58521 1.20445 6.58521L1.20445 5.46817ZM8.97829 6.58521C9.43828 6.58521 9.60675 5.93086 9.60675 5.46817C9.32911 5.18891 9.60675 4.99179 8.97829 4.99179L8.97829 6.58521ZM8.4962 6.02669C8.4962 6.48938 8.4962 6.50307 8.97829 6.58521C9.43828 6.58521 9.60675 5.93086 9.60675 5.46817L8.4962 6.02669ZM9.8112 1.3614C9.8112 0.898713 9.43828 1.01232 8.97829 1.01232C8.5183 1.01232 8.14538 0.898713 8.14538 1.3614H9.8112ZM16.7521 5.46817H12.6608H9.60675L8.97829 4.99179L8.97829 6.58521H16.7521V5.46817ZM1.20445 6.58521H5.0839H7.10802H8.97829L8.97829 4.99179L8.4962 5.46817H7.10802H5.16456H1.20445L1.20445 6.58521ZM9.60675 5.46817V3.51335V2.3963V1.83778L9.8112 1.3614H8.14538L8.4962 1.83778V2.3963V3.51335V4.63039V5.46817V6.02669L9.60675 5.46817Z" fill="#FCF02D"/>
</svg>
